<svg xmlns="http://www.w3.org/2000/svg" viewBox="0 0 512 512" role="img" aria-label="StoreConsole favicon">
  <defs>
    <linearGradient id="blue" x1="0" y1="0" x2="1" y2="1"><stop offset="0" stop-color="#0A8BFF"/><stop offset="1" stop-color="#0045A8"/></linearGradient>
    <linearGradient id="orange" x1="0" y1="0" x2="1" y2="1"><stop offset="0" stop-color="#FF9B00"/><stop offset="1" stop-color="#FF5B00"/></linearGradient>
    <linearGradient id="green" x1="0" y1="0" x2="1" y2="1"><stop offset="0" stop-color="#25D366"/><stop offset="1" stop-color="#0C9F48"/></linearGradient>
  </defs>
  <path d="M182 132 C148 132 118 160 112 196 C105 239 134 272 178 272" fill="none" stroke="url(#blue)" stroke-width="50" stroke-linecap="round"/>
  <path d="M186 355 L307 355 C328 355 346 339 350 318" fill="none" stroke="url(#blue)" stroke-width="50" stroke-linecap="round"/>
  <path d="M175 145 H348" fill="none" stroke="url(#blue)" stroke-width="42" stroke-linecap="round"/>
  <path d="M170 90 C170 56 194 36 226 36 C258 36 282 56 282 90" fill="none" stroke="url(#blue)" stroke-width="22" stroke-linecap="round"/>
  <circle cx="185" cy="425" r="24" fill="url(#blue)"/>
  <circle cx="306" cy="425" r="24" fill="url(#blue)"/>
  <rect x="194" y="248" width="33" height="62" rx="7" fill="url(#blue)"/>
  <rect x="240" y="226" width="34" height="84" rx="7" fill="url(#orange)"/>
  <rect x="287" y="198" width="35" height="112" rx="7" fill="url(#green)"/>
  <path d="M168 327 C238 323 324 283 384 213" fill="none" stroke="url(#orange)" stroke-width="34" stroke-linecap="round"/>
  <path d="M373 172 L454 157 L433 236 Z" fill="url(#orange)"/>
</svg>